<svg xmlns="http://www.w3.org/2000/svg" viewBox="0 0 1981.75 447.1"><defs><style>.cls-1{fill:#1eafed;}</style></defs><g id="Layer_2" data-name="Layer 2"><g id="Layer_1-2" data-name="Layer 1"><path class="cls-1" d="M366.21,333.07a7.75,7.75,0,0,1-.84,0h-.15c-.23,0-.47-.06-.7-.11l-.29-.06a5.12,5.12,0,0,1-.56-.15l-.44-.13-.07,0-.86-.35a9.34,9.34,0,0,1,3.91-17.76,9.07,9.07,0,0,1,5.27,1.69c.16.1.31.23.46.34l.3.27.27.24.4.4c.09.1.19.2.28.31l.22.27c.13.17.26.34.38.52s.11.17.17.24.18.3.26.45a2,2,0,0,0,.12.21c.11.21.21.43.31.65a2.29,2.29,0,0,0,.1.23c.09.23.17.46.25.7a.74.74,0,0,0,0,.14c.07.22.12.45.18.68l0,.16a7.36,7.36,0,0,1,.12.8,1.09,1.09,0,0,1,0,.18,7.92,7.92,0,0,1,.05.85,9.27,9.27,0,0,1-9.22,9.31M296.09,190.3a23.4,23.4,0,0,0,6.23-23.51l47.23-27.57A22.92,22.92,0,0,0,361,145.88V300.29a1,1,0,0,1-.72.94,1,1,0,0,1-.24,0,.94.94,0,0,1-.83-.47Zm53.8,117a.89.89,0,0,1-.67.28.88.88,0,0,1-.47-.13l-132.26-77.2a23.57,23.57,0,0,0,1-6.66,23.19,23.19,0,0,0-1-6.65l47.24-27.58a22.67,22.67,0,0,0,23.24,6.3l63.08,110.47a1,1,0,0,1-.16,1.17M344,318.07a1,1,0,0,1-.83.48L217,318.45a23,23,0,0,0-17.15-17.77v-54.6a22.73,22.73,0,0,0,11.39-6.65l132.46,77.31a1,1,0,0,1,.48.84c0,.16-.1.32-.13.49M343.29,331l-132.08,77.1a22.77,22.77,0,0,0-11.39-6.66v-55.7a23,23,0,0,0,16.89-16.64l126.11.1a1,1,0,0,1,.92.71,1,1,0,0,1-.45,1.09M203.73,424.75h0c0,.27-.06.54-.1.81,0,0,0,.06,0,.09-.05.25-.11.49-.17.73a.35.35,0,0,0,0,.14c-.08.23-.15.45-.23.67l-.06.17c-.08.2-.18.41-.26.61a1.14,1.14,0,0,0-.1.19c-.09.19-.2.38-.3.55s-.08.15-.13.22-.22.33-.33.49l-.17.22a5.46,5.46,0,0,1-.36.45c-.06.08-.13.15-.2.23l-.38.38-.25.23-.39.34-.29.22-.4.28-.34.21c-.13.08-.26.16-.4.23l-.39.18-.39.19-.44.16-.38.14c-.17,0-.34.09-.51.12a2.25,2.25,0,0,1-.35.09c-.2.05-.4.07-.59.1l-.31,0a9.08,9.08,0,0,1-.91,0c-.31,0-.62,0-.92,0l-.3,0c-.2,0-.4-.05-.6-.1l-.35-.09-.5-.12c-.13,0-.25-.1-.39-.14l-.43-.16c-.13-.06-.27-.12-.39-.19s-.27-.11-.4-.18l-.39-.23a4.05,4.05,0,0,0-.35-.21l-.39-.28-.3-.22c-.13-.11-.25-.23-.39-.34l-.24-.23a4.68,4.68,0,0,1-.38-.39l-.21-.22c-.11-.14-.24-.29-.35-.45a1.12,1.12,0,0,1-.16-.22,5.48,5.48,0,0,1-.35-.49,2.25,2.25,0,0,0-.12-.21,6,6,0,0,1-.3-.56,1,1,0,0,1-.09-.18c-.1-.21-.19-.42-.28-.63l0-.15c-.08-.22-.16-.45-.22-.68a.93.93,0,0,1,0-.13c-.06-.25-.12-.49-.17-.74a.25.25,0,0,1,0-.08,9.55,9.55,0,0,1-.15-1.61,9.22,9.22,0,1,1,18.44,0,7,7,0,0,1-.05.79M177.9,408.09,45.45,330.77a1,1,0,0,1-.47-.87l.12-.43a.91.91,0,0,1,.83-.5l126.47.1a23,23,0,0,0,16.9,16.66v55.7a22.85,22.85,0,0,0-11.4,6.66m-138-100.55a.92.92,0,0,1-.67-.28,1,1,0,0,1-.15-1.17l63.08-110.47a22.67,22.67,0,0,0,23.24-6.3l47.24,27.58a23.31,23.31,0,0,0,0,13.31L40.37,307.41a.94.94,0,0,1-.48.13M30,300.78a1,1,0,0,1-.83.47,1,1,0,0,1-.24,0,1,1,0,0,1-.71-.94V145.88a22.82,22.82,0,0,0,11.39-6.66L86.8,166.79a23.62,23.62,0,0,0-1,6.66A23.16,23.16,0,0,0,93,190.3Zm-3.14,31.41h0c-.27.12-.57.24-.86.35l-.07,0-.43.13-.55.15-.31.06c-.23,0-.46.08-.7.11h-.14a7.94,7.94,0,0,1-.85,0,9.27,9.27,0,0,1-9.22-9.31,7.92,7.92,0,0,1,.05-.85c0-.06,0-.12,0-.18,0-.27.07-.53.11-.8a.75.75,0,0,0,0-.16c0-.23.1-.46.17-.68,0,0,0-.1,0-.14.07-.24.16-.47.25-.7l.09-.23c.1-.22.2-.44.31-.64l.13-.22c.08-.15.17-.29.26-.45a2,2,0,0,0,.16-.24c.13-.18.25-.35.39-.52l.23-.27a2.61,2.61,0,0,1,.27-.31c.12-.14.26-.27.39-.4l.28-.24.3-.27c.15-.11.31-.24.46-.34a9.06,9.06,0,0,1,5.26-1.69,9.34,9.34,0,0,1,3.91,17.76M16.21,129.74l-.27-.31a3.11,3.11,0,0,1-.23-.28c-.14-.17-.26-.33-.39-.51l-.16-.25c-.09-.15-.18-.29-.26-.45a1.48,1.48,0,0,1-.13-.21c-.11-.21-.21-.43-.31-.64l-.09-.22c-.09-.24-.18-.47-.25-.71,0,0,0-.1,0-.15-.07-.22-.12-.45-.17-.68a1.24,1.24,0,0,0,0-.16c0-.26-.09-.53-.11-.79,0-.06,0-.12,0-.18a7.92,7.92,0,0,1-.05-.85A9.29,9.29,0,0,1,22.9,114a7.92,7.92,0,0,1,.85,0h.14c.24,0,.47.07.7.1l.31.06.55.15a3.12,3.12,0,0,1,.43.15H26c.29.11.59.23.86.36a9.33,9.33,0,0,1-3.91,17.75A9.16,9.16,0,0,1,17.63,131l-.45-.35-.3-.26-.28-.25-.39-.39m96.43,52.14h0c-.23.1-.47.21-.72.3l0,0c-.23.09-.46.16-.7.23l-.11,0a5.88,5.88,0,0,1-.7.16l-.11,0a9.54,9.54,0,0,1-1.52.14,9.19,9.19,0,0,1-8.33-5.37q-.16-.36-.3-.72l0-.06c-.08-.23-.16-.47-.22-.71l0-.1c-.06-.23-.11-.47-.15-.71,0,0,0-.08,0-.13,0-.24-.07-.48-.1-.73s0-.52,0-.79a9.35,9.35,0,0,1,5.31-8.43,7.76,7.76,0,0,1,.72-.3l0,0c.23-.09.47-.16.7-.23l.11,0c.23-.05.46-.11.7-.15l.12,0c.24,0,.48-.07.73-.09h0c.26,0,.52,0,.78,0a9.23,9.23,0,0,1,8.63,6.09.14.14,0,0,1,0,.06,5.83,5.83,0,0,1,.22.71.42.42,0,0,1,0,.1c.06.24.11.47.15.71a.59.59,0,0,1,0,.13,8.42,8.42,0,0,1,.14,1.52,9.34,9.34,0,0,1-5.31,8.43m64.45-142.4a1,1,0,0,1,1.15.16,1,1,0,0,1,.16,1.17L115.32,151.28a22.69,22.69,0,0,0-23.25,6.3L44.84,130a23.58,23.58,0,0,0,0-13.32Zm8.29-17.12h0c0-.27.06-.55.11-.81a.17.17,0,0,1,0-.08c.05-.26.1-.51.17-.75a.65.65,0,0,1,0-.13c.06-.23.14-.45.22-.67a1.56,1.56,0,0,1,0-.16c.09-.22.18-.42.28-.62a.66.66,0,0,1,.09-.19,5,5,0,0,1,.3-.56,2.25,2.25,0,0,0,.12-.21c.11-.17.22-.34.34-.5s.1-.15.17-.22.23-.3.35-.44l.21-.22a4.68,4.68,0,0,1,.38-.39l.24-.23c.14-.12.26-.24.39-.34l.3-.22.39-.28.34-.21.41-.23.38-.19.4-.18.43-.16.39-.14.49-.13.37-.09c.19,0,.38-.06.58-.09l.31,0a8.69,8.69,0,0,1,.89-.05h.05a6.55,6.55,0,0,1,.89,0l.32,0,.58.09.36.09.49.13.39.14.44.16.39.18.39.19c.14.07.27.15.4.23a3.87,3.87,0,0,1,.34.21l.4.28.29.22c.13.1.26.22.39.34l.25.23a4.4,4.4,0,0,1,.37.38,2.19,2.19,0,0,1,.21.23c.13.14.24.29.36.44l.17.22c.11.16.23.33.33.5s.08.14.13.21.21.36.3.55l.1.2c.08.2.18.4.26.61l.06.17c.08.22.15.44.23.67a.31.31,0,0,0,0,.13c.06.24.12.49.17.74,0,0,0,.06,0,.09,0,.26.08.53.1.81a6.84,6.84,0,0,1,.05.79,9.22,9.22,0,1,1-18.44,0c0-.27,0-.53,0-.79m0,201.19a9.22,9.22,0,1,1,9.22,9.32,9.27,9.27,0,0,1-9.22-9.32m-7.44,15.88a22.76,22.76,0,0,0,11.4,6.65v54.6a23,23,0,0,0-17.14,17.74l-125.87-.1a1,1,0,0,1-.48-1.79Zm-53.47-82.82L187.52,46.13a.93.93,0,0,1,1.07-.45,1,1,0,0,1,.71.93V201a22.77,22.77,0,0,0-11.4,6.66l-47.23-27.57a23.61,23.61,0,0,0,1-6.66,23.18,23.18,0,0,0-7.19-16.84M203.78,323.2a9.3,9.3,0,0,1-2.08,5.88l-.18.22-.33.36-.27.27-.27.25a9.09,9.09,0,0,1-11.35.66h0a7.6,7.6,0,0,1-.83-.67l-.26-.23-.28-.29q-.15-.15-.3-.33a9.33,9.33,0,0,1-.42-11.7v0a8.23,8.23,0,0,1,.59-.71l0-.05c.22-.23.43-.43.65-.63l0,0a9.07,9.07,0,0,1,12,0,.34.34,0,0,1,.06.06,7.47,7.47,0,0,1,.64.62l0,.06a8.23,8.23,0,0,1,.59.71l0,0c.19.26.37.54.54.81a9.39,9.39,0,0,1,1.31,4.76m54.67-143.09-47.24,27.57A22.7,22.7,0,0,0,199.82,201V46.61a1,1,0,0,1,.71-.93.93.93,0,0,1,1.07.45l63.09,110.48a23.19,23.19,0,0,0-7.2,16.84,23.62,23.62,0,0,0,1,6.66m31.11-5.87h0c0,.25-.06.49-.09.74,0,0,0,.08,0,.12-.05.24-.1.48-.16.71a.38.38,0,0,1,0,.1c-.06.24-.14.48-.22.71a.21.21,0,0,0,0,.06q-.13.36-.3.72a9,9,0,0,1-9.84,5.23l-.12,0a5.62,5.62,0,0,1-.71-.16l-.1,0c-.24-.07-.47-.14-.71-.23l-.05,0a9.31,9.31,0,0,1-6-8.73,8.62,8.62,0,0,1,.14-1.53.45.45,0,0,0,0-.12c.05-.24.1-.47.16-.71l0-.1c.06-.24.14-.48.22-.71l0-.06c.09-.24.18-.48.29-.71h0a9.21,9.21,0,0,1,8.34-5.37c.26,0,.52,0,.78,0l.73.1.11,0c.24,0,.47.1.7.15l.11,0c.24.07.48.14.71.23l.05,0a9.32,9.32,0,0,1,6,8.73c0,.27,0,.53,0,.79M210.87,39.64a1,1,0,0,1,1.15-.16l132.26,77.21a23.58,23.58,0,0,0,0,13.32l-47.23,27.57a22.69,22.69,0,0,0-23.25-6.3L210.72,40.81a1,1,0,0,1,.15-1.17M362.3,114.92h0c.29-.13.57-.25.86-.36h.07l.44-.15.56-.15.29-.06c.23,0,.47-.08.7-.1h.15a7.73,7.73,0,0,1,.84,0,9.29,9.29,0,0,1,9.22,9.32,7.92,7.92,0,0,1-.05.85,1.09,1.09,0,0,1,0,.18,7.18,7.18,0,0,1-.12.79l0,.16c-.06.23-.11.46-.18.68a.83.83,0,0,0,0,.15c-.08.24-.16.47-.25.7a2.29,2.29,0,0,0-.1.23c-.1.21-.2.43-.31.64l-.12.22c-.08.15-.17.29-.27.44s-.1.17-.16.25-.25.34-.38.51a3,3,0,0,1-.22.28c-.09.1-.19.2-.28.31l-.4.39a3.2,3.2,0,0,1-.27.25l-.3.26a5.07,5.07,0,0,1-.46.35,9.13,9.13,0,0,1-5.27,1.68,9.33,9.33,0,0,1-3.91-17.75m9.18,186.31V145.88a23.18,23.18,0,0,0-5.27-45.68,22.71,22.71,0,0,0-16.66,7.28L216.49,29.81a23.62,23.62,0,0,0,1-6.66,22.9,22.9,0,1,0-45.79,0,23.27,23.27,0,0,0,1,6.66L39.56,107.48A22.69,22.69,0,0,0,22.9,100.2a23.18,23.18,0,0,0-5.26,45.68V301.23a23.18,23.18,0,0,0,5.26,45.68,22.69,22.69,0,0,0,16.66-7.28L172.63,417.3A22.94,22.94,0,1,0,217.45,424a23.57,23.57,0,0,0-1-6.66l133.06-77.67a22.71,22.71,0,0,0,16.66,7.28,23.18,23.18,0,0,0,5.27-45.68"/><polygon class="cls-1" points="588.11 175.79 540.35 175.79 540.35 152.9 662.62 152.9 662.62 175.79 614.86 175.79 614.86 298.58 588.11 298.58 588.11 175.79"/><path class="cls-1" d="M823.4,225.75c0-29.77-21.62-51.2-50.64-51.2s-50.64,21.43-50.64,51.2,21.62,51.19,50.64,51.19,50.64-21.44,50.64-51.19m-128.24,0c0-43.09,32.93-74.93,77.6-74.93s77.6,31.64,77.6,74.93-32.94,74.91-77.6,74.91-77.6-31.84-77.6-74.91"/><polygon class="cls-1" points="954.97 237.61 932.12 261.33 932.12 298.58 905.36 298.58 905.36 152.9 932.12 152.9 932.12 227.62 1003.34 152.9 1033.39 152.9 972.88 218.04 1037.1 298.58 1005.8 298.58 954.97 237.61"/><polygon class="cls-1" points="1190.44 275.9 1190.44 298.59 1082.37 298.59 1082.37 152.91 1187.56 152.91 1187.56 175.59 1109.13 175.59 1109.13 213.47 1178.71 213.47 1178.71 235.73 1109.13 235.73 1109.13 275.9 1190.44 275.9"/><polygon class="cls-1" points="1374 152.9 1374 298.58 1351.98 298.58 1272.53 199.94 1272.53 298.58 1245.98 298.58 1245.98 152.9 1268 152.9 1347.45 251.55 1347.45 152.9 1374 152.9"/><path class="cls-1" d="M1557.24,225.75c0-29.77-21.61-51.2-50.64-51.2S1456,196,1456,225.75s21.62,51.19,50.64,51.19,50.64-21.44,50.64-51.19m-128.24,0c0-43.09,32.94-74.93,77.6-74.93s77.6,31.64,77.6,74.93-32.93,74.91-77.6,74.91-77.6-31.84-77.6-74.91"/><polygon class="cls-1" points="1771.55 298.58 1771.35 202.01 1724 281.94 1712.07 281.94 1664.73 203.27 1664.73 298.58 1639.2 298.58 1639.2 152.9 1661.23 152.9 1718.45 249.47 1774.65 152.9 1796.66 152.9 1796.88 298.58 1771.55 298.58"/><polygon class="cls-1" points="1925.36 247.18 1925.36 298.58 1898.59 298.58 1898.59 247.6 1841.99 152.9 1870.6 152.9 1912.8 223.87 1955.41 152.9 1981.75 152.9 1925.36 247.18"/></g></g></svg>